<mxfile host="app.diagrams.net" modified="2024-06-03T13:00:48.953Z" agent="Mozilla/5.0 (Windows NT 10.0; Win64; x64) AppleWebKit/537.36 (KHTML, like Gecko) Chrome/125.0.0.0 Safari/537.36" etag="9OpXX48rZeFElef5L5MW" version="24.4.8" type="device">
  <diagram name="第 1 页" id="BNldyUnGC12jvFM0-iri">
    <mxGraphModel dx="724" dy="360" grid="0" gridSize="10" guides="1" tooltips="1" connect="1" arrows="1" fold="1" page="1" pageScale="1" pageWidth="690" pageHeight="980" math="0" shadow="0">
      <root>
        <mxCell id="0" />
        <mxCell id="1" parent="0" />
        <mxCell id="wRi8OQXkUKPgIW-Qmgrv-4" value="" style="rounded=0;whiteSpace=wrap;html=1;dashed=1;dashPattern=1 1;" vertex="1" parent="1">
          <mxGeometry x="13" y="178" width="348" height="186" as="geometry" />
        </mxCell>
        <mxCell id="2wunycJChQpX_ikGd7AS-11" style="edgeStyle=orthogonalEdgeStyle;rounded=0;orthogonalLoop=1;jettySize=auto;html=1;exitX=0.5;exitY=1;exitDx=0;exitDy=0;entryX=0.5;entryY=0;entryDx=0;entryDy=0;fontStyle=1;fontSize=12;" parent="1" source="5VhZnxqYtKlxFA7hN-A0-1" target="5VhZnxqYtKlxFA7hN-A0-6" edge="1">
          <mxGeometry relative="1" as="geometry">
            <Array as="points">
              <mxPoint x="338" y="169" />
              <mxPoint x="284" y="169" />
            </Array>
          </mxGeometry>
        </mxCell>
        <mxCell id="2wunycJChQpX_ikGd7AS-12" style="edgeStyle=orthogonalEdgeStyle;rounded=0;orthogonalLoop=1;jettySize=auto;html=1;exitX=0.5;exitY=1;exitDx=0;exitDy=0;entryX=0.25;entryY=0;entryDx=0;entryDy=0;fontStyle=1;fontSize=12;" parent="1" source="5VhZnxqYtKlxFA7hN-A0-1" target="2wunycJChQpX_ikGd7AS-4" edge="1">
          <mxGeometry relative="1" as="geometry">
            <Array as="points">
              <mxPoint x="338" y="169" />
              <mxPoint x="525" y="169" />
            </Array>
          </mxGeometry>
        </mxCell>
        <mxCell id="2wunycJChQpX_ikGd7AS-13" value="Query" style="edgeLabel;html=1;align=center;verticalAlign=middle;resizable=0;points=[];fontStyle=1;fontSize=12;" parent="2wunycJChQpX_ikGd7AS-12" vertex="1" connectable="0">
          <mxGeometry x="-0.8721" y="1" relative="1" as="geometry">
            <mxPoint x="-3" y="20" as="offset" />
          </mxGeometry>
        </mxCell>
        <mxCell id="2wunycJChQpX_ikGd7AS-37" style="edgeStyle=orthogonalEdgeStyle;rounded=0;orthogonalLoop=1;jettySize=auto;html=1;exitX=1;exitY=0.5;exitDx=0;exitDy=0;entryX=1;entryY=0.5;entryDx=0;entryDy=0;fontStyle=1;fontSize=12;" parent="1" source="5VhZnxqYtKlxFA7hN-A0-1" target="2wunycJChQpX_ikGd7AS-35" edge="1">
          <mxGeometry relative="1" as="geometry">
            <Array as="points">
              <mxPoint x="656" y="86" />
              <mxPoint x="656" y="322" />
            </Array>
          </mxGeometry>
        </mxCell>
        <mxCell id="5VhZnxqYtKlxFA7hN-A0-1" value="User I/O" style="rounded=1;whiteSpace=wrap;html=1;fillColor=#d5e8d4;strokeColor=#82b366;fontStyle=1;fontSize=12;gradientColor=#97d077;" parent="1" vertex="1">
          <mxGeometry x="222" y="68" width="231" height="36" as="geometry" />
        </mxCell>
        <mxCell id="2wunycJChQpX_ikGd7AS-23" style="edgeStyle=orthogonalEdgeStyle;rounded=0;orthogonalLoop=1;jettySize=auto;html=1;exitX=0.25;exitY=1;exitDx=0;exitDy=0;entryX=0.25;entryY=0;entryDx=0;entryDy=0;fontStyle=1;fontSize=12;" parent="1" source="5VhZnxqYtKlxFA7hN-A0-6" target="2wunycJChQpX_ikGd7AS-19" edge="1">
          <mxGeometry relative="1" as="geometry" />
        </mxCell>
        <mxCell id="2wunycJChQpX_ikGd7AS-29" value="Embedded Chunks" style="edgeLabel;html=1;align=center;verticalAlign=middle;resizable=0;points=[];fontStyle=1;fontSize=12;" parent="2wunycJChQpX_ikGd7AS-23" vertex="1" connectable="0">
          <mxGeometry x="-0.1207" y="-1" relative="1" as="geometry">
            <mxPoint x="-30" y="3" as="offset" />
          </mxGeometry>
        </mxCell>
        <mxCell id="2wunycJChQpX_ikGd7AS-24" style="edgeStyle=orthogonalEdgeStyle;rounded=0;orthogonalLoop=1;jettySize=auto;html=1;exitX=0.75;exitY=1;exitDx=0;exitDy=0;entryX=0.75;entryY=0;entryDx=0;entryDy=0;fontStyle=1;fontSize=12;" parent="1" source="5VhZnxqYtKlxFA7hN-A0-6" target="2wunycJChQpX_ikGd7AS-19" edge="1">
          <mxGeometry relative="1" as="geometry" />
        </mxCell>
        <mxCell id="2wunycJChQpX_ikGd7AS-30" value="Embedded Query" style="edgeLabel;html=1;align=center;verticalAlign=middle;resizable=0;points=[];fontStyle=1;fontSize=12;" parent="2wunycJChQpX_ikGd7AS-24" vertex="1" connectable="0">
          <mxGeometry x="-0.0345" y="-1" relative="1" as="geometry">
            <mxPoint x="31" as="offset" />
          </mxGeometry>
        </mxCell>
        <mxCell id="5VhZnxqYtKlxFA7hN-A0-6" value="Embedding Model" style="rounded=1;whiteSpace=wrap;html=1;fillColor=#d5e8d4;strokeColor=#82b366;fontStyle=1;fontSize=12;gradientColor=#97d077;" parent="1" vertex="1">
          <mxGeometry x="222" y="193" width="124" height="36" as="geometry" />
        </mxCell>
        <mxCell id="2wunycJChQpX_ikGd7AS-33" style="edgeStyle=orthogonalEdgeStyle;rounded=0;orthogonalLoop=1;jettySize=auto;html=1;exitX=0.75;exitY=0;exitDx=0;exitDy=0;fontStyle=1;fontSize=12;entryX=0.75;entryY=1;entryDx=0;entryDy=0;" parent="1" source="2wunycJChQpX_ikGd7AS-4" target="2wunycJChQpX_ikGd7AS-41" edge="1">
          <mxGeometry relative="1" as="geometry">
            <mxPoint x="587" y="149" as="targetPoint" />
          </mxGeometry>
        </mxCell>
        <mxCell id="2wunycJChQpX_ikGd7AS-34" value="Response" style="edgeLabel;html=1;align=center;verticalAlign=middle;resizable=0;points=[];fontStyle=1;fontSize=12;" parent="2wunycJChQpX_ikGd7AS-33" vertex="1" connectable="0">
          <mxGeometry x="-0.0738" relative="1" as="geometry">
            <mxPoint as="offset" />
          </mxGeometry>
        </mxCell>
        <mxCell id="2wunycJChQpX_ikGd7AS-4" value="LLM API" style="rounded=1;whiteSpace=wrap;html=1;fillColor=#f8cecc;strokeColor=#b85450;fontStyle=1;fontSize=12;gradientColor=#ea6b66;" parent="1" vertex="1">
          <mxGeometry x="494" y="193" width="124" height="36" as="geometry" />
        </mxCell>
        <mxCell id="2wunycJChQpX_ikGd7AS-31" style="edgeStyle=orthogonalEdgeStyle;rounded=0;orthogonalLoop=1;jettySize=auto;html=1;entryX=0.25;entryY=1;entryDx=0;entryDy=0;fontStyle=1;fontSize=12;exitX=1;exitY=0.5;exitDx=0;exitDy=0;" parent="1" source="2wunycJChQpX_ikGd7AS-44" target="2wunycJChQpX_ikGd7AS-4" edge="1">
          <mxGeometry relative="1" as="geometry">
            <mxPoint x="474" y="335" as="sourcePoint" />
          </mxGeometry>
        </mxCell>
        <mxCell id="2wunycJChQpX_ikGd7AS-32" value="Top K Retrieval Chunks" style="edgeLabel;html=1;align=center;verticalAlign=middle;resizable=0;points=[];fontStyle=1;fontSize=12;" parent="2wunycJChQpX_ikGd7AS-31" vertex="1" connectable="0">
          <mxGeometry x="-0.3289" y="-2" relative="1" as="geometry">
            <mxPoint x="-19" y="-49" as="offset" />
          </mxGeometry>
        </mxCell>
        <mxCell id="2wunycJChQpX_ikGd7AS-45" style="edgeStyle=orthogonalEdgeStyle;rounded=0;orthogonalLoop=1;jettySize=auto;html=1;exitX=1;exitY=0.5;exitDx=0;exitDy=0;" parent="1" source="2wunycJChQpX_ikGd7AS-19" target="2wunycJChQpX_ikGd7AS-44" edge="1">
          <mxGeometry relative="1" as="geometry" />
        </mxCell>
        <mxCell id="2wunycJChQpX_ikGd7AS-19" value="Embedded Chunks" style="rounded=1;whiteSpace=wrap;html=1;fillColor=#fff2cc;strokeColor=#d6b656;fontStyle=1;fontSize=12;gradientColor=#ffd966;" parent="1" vertex="1">
          <mxGeometry x="222" y="287" width="124" height="69" as="geometry" />
        </mxCell>
        <mxCell id="2wunycJChQpX_ikGd7AS-26" style="edgeStyle=orthogonalEdgeStyle;rounded=0;orthogonalLoop=1;jettySize=auto;html=1;exitX=0.5;exitY=0;exitDx=0;exitDy=0;entryX=0.5;entryY=1;entryDx=0;entryDy=0;fontStyle=1;fontSize=12;" parent="1" source="2wunycJChQpX_ikGd7AS-20" target="2wunycJChQpX_ikGd7AS-25" edge="1">
          <mxGeometry relative="1" as="geometry" />
        </mxCell>
        <mxCell id="2wunycJChQpX_ikGd7AS-20" value="Corpus" style="rounded=1;whiteSpace=wrap;html=1;fillColor=#fff2cc;strokeColor=#d6b656;fontStyle=1;fontSize=12;gradientColor=#ffd966;" parent="1" vertex="1">
          <mxGeometry x="27" y="288" width="124" height="69" as="geometry" />
        </mxCell>
        <mxCell id="2wunycJChQpX_ikGd7AS-27" style="edgeStyle=orthogonalEdgeStyle;rounded=0;orthogonalLoop=1;jettySize=auto;html=1;exitX=1;exitY=0.5;exitDx=0;exitDy=0;entryX=0;entryY=0.5;entryDx=0;entryDy=0;fontStyle=1;fontSize=12;" parent="1" source="2wunycJChQpX_ikGd7AS-25" target="5VhZnxqYtKlxFA7hN-A0-6" edge="1">
          <mxGeometry relative="1" as="geometry" />
        </mxCell>
        <mxCell id="2wunycJChQpX_ikGd7AS-28" value="Chunks" style="edgeLabel;html=1;align=center;verticalAlign=middle;resizable=0;points=[];fontStyle=1;fontSize=12;" parent="2wunycJChQpX_ikGd7AS-27" vertex="1" connectable="0">
          <mxGeometry x="-0.2075" y="1" relative="1" as="geometry">
            <mxPoint x="4" y="1" as="offset" />
          </mxGeometry>
        </mxCell>
        <mxCell id="2wunycJChQpX_ikGd7AS-25" value="Split Module" style="rounded=1;whiteSpace=wrap;html=1;fillColor=#dae8fc;strokeColor=#6c8ebf;fontStyle=1;fontSize=12;gradientColor=#7ea6e0;" parent="1" vertex="1">
          <mxGeometry x="27" y="194" width="124" height="36" as="geometry" />
        </mxCell>
        <mxCell id="2wunycJChQpX_ikGd7AS-36" style="edgeStyle=orthogonalEdgeStyle;rounded=0;orthogonalLoop=1;jettySize=auto;html=1;exitX=0.5;exitY=0;exitDx=0;exitDy=0;entryX=0.75;entryY=1;entryDx=0;entryDy=0;fontStyle=1;fontSize=12;" parent="1" source="2wunycJChQpX_ikGd7AS-35" target="2wunycJChQpX_ikGd7AS-4" edge="1">
          <mxGeometry relative="1" as="geometry" />
        </mxCell>
        <mxCell id="2wunycJChQpX_ikGd7AS-35" value="Prompt" style="rounded=1;whiteSpace=wrap;html=1;fillColor=#fff2cc;strokeColor=#d6b656;fontStyle=1;fontSize=12;gradientColor=#ffd966;" parent="1" vertex="1">
          <mxGeometry x="555" y="301.5" width="64" height="40" as="geometry" />
        </mxCell>
        <mxCell id="wRi8OQXkUKPgIW-Qmgrv-1" style="edgeStyle=orthogonalEdgeStyle;rounded=0;orthogonalLoop=1;jettySize=auto;html=1;exitX=1;exitY=0.5;exitDx=0;exitDy=0;entryX=0;entryY=0.5;entryDx=0;entryDy=0;" edge="1" parent="1" source="2wunycJChQpX_ikGd7AS-38" target="5VhZnxqYtKlxFA7hN-A0-1">
          <mxGeometry relative="1" as="geometry" />
        </mxCell>
        <mxCell id="2wunycJChQpX_ikGd7AS-38" value="Metrics&amp;nbsp; Module" style="rounded=1;whiteSpace=wrap;html=1;fillColor=#dae8fc;strokeColor=#6c8ebf;fontStyle=1;fontSize=12;gradientColor=#7ea6e0;" parent="1" vertex="1">
          <mxGeometry x="28" y="68" width="122" height="36" as="geometry" />
        </mxCell>
        <mxCell id="2wunycJChQpX_ikGd7AS-42" style="edgeStyle=orthogonalEdgeStyle;rounded=0;orthogonalLoop=1;jettySize=auto;html=1;exitX=0;exitY=0.5;exitDx=0;exitDy=0;entryX=0.5;entryY=1;entryDx=0;entryDy=0;dashed=1;" parent="1" source="2wunycJChQpX_ikGd7AS-41" target="2wunycJChQpX_ikGd7AS-38" edge="1">
          <mxGeometry relative="1" as="geometry">
            <Array as="points">
              <mxPoint x="89" y="123" />
            </Array>
          </mxGeometry>
        </mxCell>
        <mxCell id="2wunycJChQpX_ikGd7AS-41" value="Reranking Module" style="rounded=1;whiteSpace=wrap;html=1;fillColor=#dae8fc;strokeColor=#6c8ebf;fontStyle=1;fontSize=12;gradientColor=#7ea6e0;" parent="1" vertex="1">
          <mxGeometry x="495" y="105" width="122" height="36" as="geometry" />
        </mxCell>
        <mxCell id="2wunycJChQpX_ikGd7AS-44" value="Retrieval Module" style="rounded=1;whiteSpace=wrap;html=1;fillColor=#dae8fc;strokeColor=#6c8ebf;fontStyle=1;fontSize=12;gradientColor=#7ea6e0;" parent="1" vertex="1">
          <mxGeometry x="376" y="287" width="124" height="69" as="geometry" />
        </mxCell>
      </root>
    </mxGraphModel>
  </diagram>
</mxfile>
